<svg aria-hidden="true" style="position: absolute; width: 0; height: 0; overflow: hidden;" version="1.1" xmlns="http://www.w3.org/2000/svg" xmlns:xlink="http://www.w3.org/1999/xlink">
<defs>
<symbol id="checkmark" viewBox="0 0 24 24">
<path stroke-linejoin="round" stroke-linecap="round" stroke-miterlimit="4" stroke-width="1.2" d="M19.5 6l-10.5 12-4.5-4.5"></path>
</symbol>
<symbol id="email" viewBox="0 0 24 24">
<path fill="#f7fbfb" style="fill: var(--color1, #f7fbfb)" d="M20.16 4.2h-16.32c-1.122 0-2.030 0.878-2.030 1.95l-0.010 11.7c0 1.073 0.918 1.95 2.040 1.95h16.32c1.122 0 2.040-0.877 2.040-1.95v-11.7c0-1.072-0.918-1.95-2.040-1.95zM19.752 8.344l-7.211 4.31c-0.155 0.092-0.341 0.146-0.54 0.146s-0.386-0.054-0.545-0.149l0.005 0.003-7.212-4.31c-0.104-0.056-0.191-0.129-0.261-0.216l-0.001-0.002c-0.112-0.136-0.181-0.312-0.181-0.504 0-0.164 0.050-0.317 0.135-0.443l-0.002 0.003c0.061-0.095 0.143-0.177 0.24-0.241 0.138-0.093 0.309-0.149 0.492-0.149 0.062 0 0.123 0.006 0.181 0.019l-0.006-0.001c0.115 0.022 0.224 0.067 0.32 0.13l6.834 4.085 6.834-4.085c0.138-0.093 0.308-0.148 0.492-0.148 0.063 0 0.124 0.007 0.183 0.019l-0.006-0.001c0.115 0.022 0.224 0.067 0.32 0.131s0.178 0.146 0.24 0.242c0.082 0.124 0.131 0.277 0.131 0.441 0 0.073-0.010 0.143-0.028 0.21l0.001-0.006c-0.030 0.108-0.081 0.21-0.153 0.299s-0.159 0.161-0.258 0.215l-0.005 0.002z"></path>
</symbol>
<symbol id="phone" viewBox="0 0 24 24">
<path fill="#f7fbfb" style="fill: var(--color1, #f7fbfb)" d="M16.061 1.2h-8.123c-0.673 0-1.319 0.259-1.795 0.719-0.457 0.438-0.742 1.053-0.744 1.735v16.691c0 0.651 0.268 1.275 0.744 1.736 0.463 0.445 1.093 0.718 1.788 0.718 0.003 0 0.005 0 0.008 0h8.122c0.674 0 1.32-0.259 1.796-0.718 0.457-0.439 0.741-1.054 0.743-1.736v-16.691c0-0.651-0.267-1.275-0.743-1.736-0.463-0.445-1.094-0.719-1.788-0.719-0.002 0-0.004 0-0.007 0h0zM11.999 21.818c-0.842 0-1.522-0.658-1.522-1.473s0.68-1.472 1.522-1.472c0.843 0 1.523 0.658 1.523 1.472s-0.68 1.473-1.523 1.473zM16.568 17.891h-9.137v-13.746h9.137v13.746z"></path>
</symbol>
<symbol id="place" viewBox="0 0 24 24">
<path fill="#f7fbfb" style="fill: var(--color1, #f7fbfb)" d="M12 1.8c-3.98 0-7.2 3.193-7.2 7.14 0 5.355 7.2 13.26 7.2 13.26s7.2-7.905 7.2-13.26c0-3.947-3.219-7.14-7.2-7.14zM12 11.49c-0.682 0-1.336-0.269-1.818-0.747-0.465-0.46-0.753-1.098-0.753-1.803v-0c0-0.676 0.271-1.325 0.753-1.803 0.466-0.462 1.108-0.747 1.817-0.747 0.001 0 0.001 0 0.002 0h-0c0.683 0 1.337 0.268 1.819 0.747 0.465 0.46 0.752 1.098 0.753 1.803v0c0 0.677-0.271 1.325-0.753 1.803-0.466 0.462-1.108 0.747-1.817 0.747-0.001 0-0.002 0-0.002 0h0z"></path>
</symbol>
<symbol id="round" viewBox="0 0 24 24">
<path fill="#5b86a1" style="fill: var(--color2, #5b86a1)" d="M12 7c-5.52 0-10.001 2.24-10.001 5 0 2.24 2.94 4.13 7 4.77v2.020c0 0.45 0.54 0.67 0.851 0.35l2.79-2.79c0.093-0.090 0.15-0.216 0.15-0.355s-0.057-0.265-0.15-0.355l-2.79-2.79c-0.090-0.089-0.214-0.144-0.351-0.144-0.276 0-0.499 0.224-0.499 0.499 0 0.002 0 0.003 0 0.005v-0 1.52c-3.15-0.56-5-1.9-5-2.73 0-1.060 3.040-3 8-3s8 1.94 8 3c0 0.66-1.2 1.68-3.32 2.34-0.41 0.13-0.679 0.51-0.679 0.94 0 0.67 0.649 1.16 1.28 0.96 2.831-0.88 4.721-2.45 4.721-4.24 0-2.76-4.481-5-10.001-5z"></path>
</symbol>
<symbol id="star" viewBox="0 0 24 24">
<path fill="#f7fbfb" style="fill: var(--color1, #f7fbfb)" d="M11.524 3.464c0.067-0.203 0.255-0.347 0.476-0.347s0.409 0.144 0.475 0.343l0.001 0.004 1.657 5.1c0.067 0.202 0.254 0.346 0.475 0.346h5.364c0.276 0 0.499 0.224 0.499 0.5 0 0.165-0.080 0.312-0.204 0.403l-0.001 0.001-4.34 3.153c-0.125 0.092-0.206 0.239-0.206 0.404 0 0.055 0.009 0.109 0.026 0.158l-0.001-0.004 1.657 5.1c0.016 0.047 0.025 0.1 0.025 0.156 0 0.276-0.224 0.5-0.5 0.5-0.111 0-0.213-0.036-0.296-0.097l0.001 0.001-4.338-3.153c-0.081-0.060-0.183-0.096-0.294-0.096s-0.213 0.036-0.295 0.097l0.001-0.001-4.339 3.153c-0.082 0.060-0.184 0.096-0.295 0.096-0.276 0-0.5-0.224-0.5-0.5 0-0.056 0.009-0.11 0.026-0.16l-0.001 0.004 1.658-5.1c0.016-0.046 0.025-0.1 0.025-0.155 0-0.166-0.081-0.313-0.205-0.404l-0.001-0.001-4.339-3.151c-0.125-0.092-0.205-0.239-0.205-0.404 0-0.276 0.224-0.5 0.499-0.5h5.364c0.221-0 0.408-0.144 0.474-0.342l0.001-0.004 1.657-5.1z"></path>
</symbol>
<symbol id="facebook" viewBox="0 0 24 24">
<path fill="#f7fbfb" style="fill: var(--color1, #f7fbfb)" d="M12 2.040c-5.5 0-10 4.49-10 10.020 0 5 3.66 9.15 8.44 9.9v-7h-2.54v-2.9h2.54v-2.21c0-2.51 1.49-3.89 3.78-3.89 1.090 0 2.23 0.19 2.23 0.19v2.47h-1.26c-1.24 0-1.63 0.77-1.63 1.56v1.88h2.78l-0.45 2.9h-2.33v7c4.811-0.781 8.44-4.906 8.44-9.878 0-0.008 0-0.016-0-0.024v0.001c0-5.53-4.5-10.020-10-10.020z"></path>
</symbol>
<symbol id="instagram" viewBox="0 0 24 24">
<path fill="#f7fbfb" style="fill: var(--color1, #f7fbfb)" d="M7.8 2h8.4c3.2 0 5.8 2.6 5.8 5.8v8.4c0 0 0 0 0 0.001 0 3.203-2.597 5.8-5.8 5.8h-8.401c-3.2 0-5.8-2.6-5.8-5.8v-8.4c0-3.203 2.597-5.8 5.8-5.8v0zM7.6 4c-1.988 0-3.6 1.612-3.6 3.6v0 8.8c0 1.99 1.61 3.6 3.6 3.6h8.8c1.988 0 3.6-1.612 3.6-3.6v0-8.8c0-1.99-1.61-3.6-3.6-3.6h-8.8zM17.251 5.5c0.69 0 1.25 0.56 1.25 1.25s-0.56 1.25-1.25 1.25v0c-0.69 0-1.25-0.56-1.25-1.25s0.56-1.25 1.25-1.25v0zM12.001 7c2.761 0 5 2.238 5 5s-2.238 5-5 5v0c-2.761 0-5-2.238-5-5s2.238-5 5-5v0zM12 9c-1.657 0-3 1.343-3 3s1.343 3 3 3v0c1.657 0 3-1.343 3-3s-1.343-3-3-3v0z"></path>
</symbol>
<symbol id="telegram" viewBox="0 0 24 24">
<path fill="#f7fbfb" style="fill: var(--color1, #f7fbfb)" d="M11.994 2c-5.523 0-10 4.477-10 10s4.477 10 10 10v0c5.523 0 10-4.477 10-10s-4.477-10-10-10v0zM15.174 17.152c-0.107 0.262-0.36 0.443-0.655 0.443-0.128 0-0.247-0.034-0.35-0.093l0.003 0.002-2.714-2.11-1.742 1.608c-0.049 0.037-0.111 0.059-0.178 0.059-0.038 0-0.075-0.007-0.109-0.020l0.002 0.001 0.334-2.989 0.010 0.009 0.007-0.059s4.885-4.448 5.084-4.637c0.202-0.189 0.135-0.23 0.135-0.23 0.012-0.23-0.361 0-0.361 0l-6.473 4.164-2.695-0.918s-0.414-0.148-0.453-0.475c-0.041-0.324 0.466-0.5 0.466-0.5l10.717-4.258s0.881-0.392 0.881 0.258l-1.908 9.746z"></path>
</symbol>
<symbol id="close" viewBox="0 0 24 24">
<path fill="none" stroke="#f7fbfb" style="stroke: var(--color1, #f7fbfb)" stroke-linejoin="round" stroke-linecap="round" stroke-miterlimit="4" stroke-width="1.2" d="M18 18l-12-12M18 6l-12 12"></path>
</symbol>
<symbol id="logo" viewBox="0 0 24 24">
<path fill="#f7fbfb" style="fill: var(--color1, #f7fbfb)" d="M20.412 5.312l-6.624-3.695c-0.482-0.269-1.116-0.417-1.788-0.417s-1.306 0.148-1.788 0.417l-6.624 3.695c-1.002 0.56-1.788 1.874-1.788 2.993v7.392c0 1.118 0.785 2.433 1.788 2.992l6.624 3.695c0.482 0.269 1.117 0.416 1.788 0.416s1.306-0.148 1.788-0.416l6.624-3.696c1.003-0.56 1.788-1.874 1.788-2.993v-7.392c0-1.116-0.785-2.431-1.788-2.991zM3.958 18.068c-0.768-0.428-1.418-1.515-1.418-2.372v-3.159c2.358-0.179 3.755 0.425 5.5 1.183 1.57 0.683 3.457 1.503 6.542 1.944-0.576 0.107-1.158 0.206-1.738 0.303-3.15 0.531-6.129 1.037-7.758 2.731l-1.127-0.629zM13.907 11.639c-1.423 0.547-3.277 1.037-6.018 1.232-1.212-0.52-2.366-0.96-3.878-1.062l5.036-4.866 4.859 4.696zM13.556 10.287l3.621-3.499 2.722 2.63c-1.567 0.138-2.664 0.674-3.88 1.272-0.424 0.209-0.874 0.43-1.376 0.649l-1.088-1.051zM21.459 15.695c0 0.858-0.649 1.944-1.418 2.373l-6.624 3.695c-0.364 0.204-0.881 0.322-1.417 0.322s-1.053-0.116-1.418-0.321l-4.839-2.7c1.494-1.426 4.284-1.897 7.228-2.393 3.318-0.559 6.734-1.136 8.489-3.206v2.23zM21.459 12.128c-0.779 1.632-2.55 2.488-4.66 3.050-3.636-0.255-5.779-0.983-7.535-1.716 3.591-0.416 5.513-1.36 7.091-2.135 1.553-0.764 2.798-1.372 5.104-1.198v1.999zM21.459 9.411c-0.188-0.014-0.372-0.023-0.548-0.027l-3.472-3.355c-0.067-0.065-0.158-0.104-0.258-0.104-0.001 0-0.002 0-0.004 0h0c-0.101 0-0.194 0.040-0.262 0.105l0-0-3.883 3.752-3.724-3.597c-0.067-0.065-0.158-0.105-0.259-0.105-0.001 0-0.002 0-0.003 0h0c-0.102 0-0.194 0.040-0.262 0.105l0-0-5.807 5.612c-0.143 0.005-0.289 0.012-0.437 0.023v-3.514c0-0.858 0.649-1.944 1.418-2.373l6.624-3.696c0.366-0.204 0.882-0.32 1.418-0.32s1.053 0.117 1.418 0.321l6.624 3.695c0.768 0.429 1.418 1.516 1.418 2.373l-0.002 1.106z"></path>
</symbol>
<symbol id="menu" viewBox="0 0 24 24">
<path fill="none" stroke="#f7fbfb" style="stroke: var(--color1, #f7fbfb)" stroke-linejoin="miter" stroke-linecap="round" stroke-miterlimit="10" stroke-width="1.8" d="M3.6 7.2h16.8M3.6 12h16.8M3.6 16.2h16.8"></path>
</symbol>
<symbol id="prev" viewBox="0 0 24 24">
<path  d="M14.846 19.8c-0.207-0.003-0.394-0.083-0.535-0.213l0.001 0-7.493-7.382c-0.135-0.134-0.219-0.321-0.219-0.526s0.084-0.392 0.219-0.526l0-0 7.493-7.383c0.13-0.106 0.299-0.171 0.482-0.171 0.209 0 0.398 0.084 0.537 0.22l-0-0c0.136 0.135 0.221 0.322 0.221 0.528 0 0.181-0.065 0.347-0.172 0.476l0.001-0.001-6.969 6.857 6.969 6.857c0.135 0.134 0.218 0.32 0.218 0.526s-0.083 0.391-0.218 0.526l-0 0c-0.14 0.13-0.327 0.21-0.533 0.213h-0.001z"></path>
</symbol>
<symbol id="next" viewBox="0 0 24 24">
<path  d="M9.154 19.8c0.207-0.003 0.394-0.083 0.535-0.213l-0.001 0 7.492-7.383c0.135-0.134 0.219-0.321 0.219-0.526s-0.084-0.392-0.219-0.526l-0-0-7.492-7.383c-0.13-0.106-0.299-0.171-0.482-0.171-0.209 0-0.398 0.084-0.537 0.22l0-0c-0.136 0.135-0.221 0.322-0.221 0.528 0 0.181 0.065 0.347 0.172 0.476l-0.001-0.001 6.969 6.857-6.969 6.857c-0.135 0.134-0.218 0.32-0.218 0.526s0.083 0.391 0.218 0.526l0 0c0.14 0.13 0.327 0.21 0.533 0.213h0.001z"></path>
</symbol>
</defs>
</svg>
